<?xml version="1.0" standalone="no"?>
<!DOCTYPE svg PUBLIC "-//W3C//DTD SVG 20010904//EN"
 "http://www.w3.org/TR/2001/REC-SVG-20010904/DTD/svg10.dtd">
<svg version="1.0" xmlns="http://www.w3.org/2000/svg"
 width="1024.000000pt" height="1024.000000pt" viewBox="0 0 1024.000000 1024.000000"
 preserveAspectRatio="xMidYMid meet">

<g transform="translate(0.000000,1024.000000) scale(0.100000,-0.100000)"
fill="#000000" stroke="none">
<path d="M3833 7651 c-62 -39 -68 -59 -71 -232 l-4 -157 -251 -5 c-287 -5
-325 -12 -474 -83 -176 -84 -310 -219 -392 -395 -82 -174 -75 -9 -78 -1903 -3
-1487 -2 -1701 12 -1779 56 -324 295 -580 625 -669 l85 -23 1835 0 1835 0 85
23 c324 86 561 332 624 647 15 72 16 253 14 1795 l-3 1715 -24 70 c-97 290
-295 486 -578 572 -83 25 -102 26 -340 31 l-253 4 0 151 c0 134 -2 156 -20
185 -61 100 -211 95 -262 -8 -15 -29 -18 -62 -18 -182 l0 -148 -1060 0 -1060
0 0 150 c0 162 -5 184 -54 229 -37 35 -127 41 -173 12z m-73 -798 c0 -146 11
-182 69 -220 71 -48 175 -20 213 57 14 28 18 61 18 163 l0 127 1060 0 1060 0
0 -127 c0 -146 11 -182 69 -220 50 -34 129 -32 170 3 50 42 56 60 61 204 l5
135 215 -1 c168 0 229 -4 279 -17 194 -52 358 -210 405 -392 14 -52 16 -253
16 -1735 0 -1364 -3 -1684 -14 -1725 -21 -82 -66 -163 -128 -230 -67 -73 -126
-113 -223 -152 l-70 -28 -1819 -3 c-2008 -3 -1871 -7 -2006 61 -75 37 -173
129 -215 201 -16 27 -40 78 -54 115 l-26 66 -3 1679 c-3 1849 -6 1732 59 1862
76 152 230 264 402 293 29 5 143 9 255 10 l202 1 0 -127z"/>
<path d="M3522 5660 c-33 -15 -47 -29 -62 -62 -18 -40 -20 -68 -20 -375 l0
-331 38 -12 c20 -7 57 -23 81 -37 84 -48 103 -156 40 -228 -28 -32 -100 -65
-141 -65 -17 0 -18 -18 -18 -337 0 -315 1 -339 20 -378 11 -22 34 -49 52 -60
32 -20 59 -20 1598 -23 l1565 -2 45 22 c74 38 80 59 80 288 l0 196 -66 11
c-260 45 -447 287 -404 525 32 179 168 327 345 373 33 8 74 15 92 15 l33 0 0
190 c0 214 -6 242 -61 281 l-34 24 -1570 2 c-1538 3 -1571 2 -1613 -17z"/>
</g>
</svg>
